<mxfile host="app.diagrams.net" modified="2024-05-14T09:15:46.132Z" agent="Mozilla/5.0 (Windows NT 10.0; Win64; x64) AppleWebKit/537.36 (KHTML, like Gecko) Chrome/124.0.0.0 Safari/537.36" etag="kyu-DbEo0az7yVSaLwN-" version="24.4.0" type="device">
  <diagram name="Trang-1" id="251Tc9x8hzwzEJADk733">
    <mxGraphModel dx="3695" dy="2645" grid="1" gridSize="10" guides="1" tooltips="1" connect="1" arrows="1" fold="1" page="1" pageScale="1" pageWidth="827" pageHeight="1169" math="0" shadow="0">
      <root>
        <mxCell id="0" />
        <mxCell id="1" parent="0" />
        <mxCell id="a4cFl_eTUyioMGV9xZ0--58" value="" style="group" vertex="1" connectable="0" parent="1">
          <mxGeometry x="-800" y="-1090" width="2410" height="1720" as="geometry" />
        </mxCell>
        <mxCell id="Z0JXuheSDJeT8w4dW5JN-56" value="" style="group" parent="a4cFl_eTUyioMGV9xZ0--58" vertex="1" connectable="0">
          <mxGeometry y="650" width="1230" height="1070" as="geometry" />
        </mxCell>
        <mxCell id="Z0JXuheSDJeT8w4dW5JN-55" value="" style="rounded=1;whiteSpace=wrap;html=1;" parent="Z0JXuheSDJeT8w4dW5JN-56" vertex="1">
          <mxGeometry width="1230" height="1070" as="geometry" />
        </mxCell>
        <mxCell id="2nRzOmUZna1-RDWkNsdg-117" value="&lt;span style=&quot;font-size: 36px;&quot;&gt;&lt;b&gt;LOOP&lt;/b&gt;&lt;/span&gt;" style="text;html=1;strokeColor=none;fillColor=none;align=center;verticalAlign=middle;whiteSpace=wrap;rounded=0;" parent="Z0JXuheSDJeT8w4dW5JN-56" vertex="1">
          <mxGeometry x="1040" y="680" width="60" height="30" as="geometry" />
        </mxCell>
        <mxCell id="Z0JXuheSDJeT8w4dW5JN-9" value="datacheck = 1" style="rhombus;whiteSpace=wrap;html=1;" parent="Z0JXuheSDJeT8w4dW5JN-56" vertex="1">
          <mxGeometry x="430" y="20" width="120" height="80" as="geometry" />
        </mxCell>
        <mxCell id="Z0JXuheSDJeT8w4dW5JN-11" value="&lt;span style=&quot;color: rgb(13, 13, 13); text-align: start; white-space-collapse: preserve; background-color: rgb(255, 255, 255);&quot;&gt;&lt;font style=&quot;font-size: 12px;&quot; face=&quot;Helvetica&quot;&gt;Determine the animation mode from the CAN message&lt;/font&gt;&lt;/span&gt;&lt;div&gt;mode = (RxData[1] &amp;lt;&amp;lt; 8) | RxData[0]&lt;/div&gt;" style="rounded=0;whiteSpace=wrap;html=1;" parent="Z0JXuheSDJeT8w4dW5JN-56" vertex="1">
          <mxGeometry x="332.5" y="170" width="315" height="60" as="geometry" />
        </mxCell>
        <mxCell id="Z0JXuheSDJeT8w4dW5JN-12" value="" style="endArrow=classic;html=1;rounded=0;exitX=0.5;exitY=1;exitDx=0;exitDy=0;" parent="Z0JXuheSDJeT8w4dW5JN-56" source="Z0JXuheSDJeT8w4dW5JN-9" target="Z0JXuheSDJeT8w4dW5JN-11" edge="1">
          <mxGeometry relative="1" as="geometry">
            <mxPoint x="310" y="150" as="sourcePoint" />
            <mxPoint x="410" y="150" as="targetPoint" />
          </mxGeometry>
        </mxCell>
        <mxCell id="Z0JXuheSDJeT8w4dW5JN-13" value="YES" style="edgeLabel;resizable=0;html=1;;align=center;verticalAlign=middle;" parent="Z0JXuheSDJeT8w4dW5JN-12" connectable="0" vertex="1">
          <mxGeometry relative="1" as="geometry" />
        </mxCell>
        <mxCell id="Z0JXuheSDJeT8w4dW5JN-14" value="mode != pre_mode" style="rhombus;whiteSpace=wrap;html=1;" parent="Z0JXuheSDJeT8w4dW5JN-56" vertex="1">
          <mxGeometry x="425" y="280" width="130" height="80" as="geometry" />
        </mxCell>
        <mxCell id="Z0JXuheSDJeT8w4dW5JN-15" value="" style="endArrow=classic;html=1;rounded=0;exitX=0.5;exitY=1;exitDx=0;exitDy=0;entryX=0.5;entryY=0;entryDx=0;entryDy=0;" parent="Z0JXuheSDJeT8w4dW5JN-56" source="Z0JXuheSDJeT8w4dW5JN-11" target="Z0JXuheSDJeT8w4dW5JN-14" edge="1">
          <mxGeometry relative="1" as="geometry">
            <mxPoint x="310" y="270" as="sourcePoint" />
            <mxPoint x="410" y="270" as="targetPoint" />
          </mxGeometry>
        </mxCell>
        <mxCell id="Z0JXuheSDJeT8w4dW5JN-23" style="edgeStyle=orthogonalEdgeStyle;rounded=0;orthogonalLoop=1;jettySize=auto;html=1;exitX=0;exitY=0.5;exitDx=0;exitDy=0;entryX=0;entryY=0.5;entryDx=0;entryDy=0;" parent="Z0JXuheSDJeT8w4dW5JN-56" source="Z0JXuheSDJeT8w4dW5JN-17" target="Z0JXuheSDJeT8w4dW5JN-20" edge="1">
          <mxGeometry relative="1" as="geometry" />
        </mxCell>
        <mxCell id="Z0JXuheSDJeT8w4dW5JN-17" value="clear animation&lt;div&gt;pre_mode = mode&lt;/div&gt;" style="rounded=0;whiteSpace=wrap;html=1;" parent="Z0JXuheSDJeT8w4dW5JN-56" vertex="1">
          <mxGeometry x="260" y="300" width="102.94" height="40" as="geometry" />
        </mxCell>
        <mxCell id="Z0JXuheSDJeT8w4dW5JN-18" value="" style="endArrow=classic;html=1;rounded=0;exitX=0;exitY=0.5;exitDx=0;exitDy=0;entryX=1;entryY=0.5;entryDx=0;entryDy=0;" parent="Z0JXuheSDJeT8w4dW5JN-56" source="Z0JXuheSDJeT8w4dW5JN-14" target="Z0JXuheSDJeT8w4dW5JN-17" edge="1">
          <mxGeometry relative="1" as="geometry">
            <mxPoint x="310" y="380" as="sourcePoint" />
            <mxPoint x="410" y="380" as="targetPoint" />
          </mxGeometry>
        </mxCell>
        <mxCell id="Z0JXuheSDJeT8w4dW5JN-19" value="YES" style="edgeLabel;resizable=0;html=1;;align=center;verticalAlign=middle;" parent="Z0JXuheSDJeT8w4dW5JN-18" connectable="0" vertex="1">
          <mxGeometry relative="1" as="geometry" />
        </mxCell>
        <mxCell id="Z0JXuheSDJeT8w4dW5JN-33" style="edgeStyle=orthogonalEdgeStyle;rounded=0;orthogonalLoop=1;jettySize=auto;html=1;exitX=1;exitY=0.5;exitDx=0;exitDy=0;" parent="Z0JXuheSDJeT8w4dW5JN-56" source="Z0JXuheSDJeT8w4dW5JN-20" target="Z0JXuheSDJeT8w4dW5JN-32" edge="1">
          <mxGeometry relative="1" as="geometry" />
        </mxCell>
        <mxCell id="Z0JXuheSDJeT8w4dW5JN-20" value="datacheck = 0" style="rounded=0;whiteSpace=wrap;html=1;" parent="Z0JXuheSDJeT8w4dW5JN-56" vertex="1">
          <mxGeometry x="445" y="400" width="90" height="40" as="geometry" />
        </mxCell>
        <mxCell id="Z0JXuheSDJeT8w4dW5JN-21" value="" style="endArrow=classic;html=1;rounded=0;exitX=0.5;exitY=1;exitDx=0;exitDy=0;entryX=0.5;entryY=0;entryDx=0;entryDy=0;" parent="Z0JXuheSDJeT8w4dW5JN-56" source="Z0JXuheSDJeT8w4dW5JN-14" target="Z0JXuheSDJeT8w4dW5JN-20" edge="1">
          <mxGeometry relative="1" as="geometry">
            <mxPoint x="310" y="380" as="sourcePoint" />
            <mxPoint x="410" y="380" as="targetPoint" />
          </mxGeometry>
        </mxCell>
        <mxCell id="Z0JXuheSDJeT8w4dW5JN-22" value="NO" style="edgeLabel;resizable=0;html=1;;align=center;verticalAlign=middle;" parent="Z0JXuheSDJeT8w4dW5JN-21" connectable="0" vertex="1">
          <mxGeometry relative="1" as="geometry" />
        </mxCell>
        <mxCell id="Z0JXuheSDJeT8w4dW5JN-24" value="datacheck = 2" style="rhombus;whiteSpace=wrap;html=1;" parent="Z0JXuheSDJeT8w4dW5JN-56" vertex="1">
          <mxGeometry x="820" y="20" width="120" height="80" as="geometry" />
        </mxCell>
        <mxCell id="Z0JXuheSDJeT8w4dW5JN-25" value="" style="endArrow=classic;html=1;rounded=0;exitX=1;exitY=0.5;exitDx=0;exitDy=0;entryX=0;entryY=0.5;entryDx=0;entryDy=0;" parent="Z0JXuheSDJeT8w4dW5JN-56" source="Z0JXuheSDJeT8w4dW5JN-9" target="Z0JXuheSDJeT8w4dW5JN-24" edge="1">
          <mxGeometry relative="1" as="geometry">
            <mxPoint x="560" y="90" as="sourcePoint" />
            <mxPoint x="660" y="90" as="targetPoint" />
          </mxGeometry>
        </mxCell>
        <mxCell id="Z0JXuheSDJeT8w4dW5JN-26" value="NO" style="edgeLabel;resizable=0;html=1;;align=center;verticalAlign=middle;" parent="Z0JXuheSDJeT8w4dW5JN-25" connectable="0" vertex="1">
          <mxGeometry relative="1" as="geometry" />
        </mxCell>
        <mxCell id="Z0JXuheSDJeT8w4dW5JN-31" style="edgeStyle=orthogonalEdgeStyle;rounded=0;orthogonalLoop=1;jettySize=auto;html=1;exitX=0.5;exitY=1;exitDx=0;exitDy=0;" parent="Z0JXuheSDJeT8w4dW5JN-56" source="Z0JXuheSDJeT8w4dW5JN-27" target="Z0JXuheSDJeT8w4dW5JN-30" edge="1">
          <mxGeometry relative="1" as="geometry" />
        </mxCell>
        <mxCell id="Z0JXuheSDJeT8w4dW5JN-27" value="&lt;div style=&quot;&quot;&gt;&lt;font color=&quot;#0d0d0d&quot;&gt;&lt;span style=&quot;white-space-collapse: preserve; background-color: rgb(255, 255, 255);&quot;&gt;Write the new configuration value into Flash memory&lt;/span&gt;&lt;/font&gt;&lt;/div&gt;&lt;div style=&quot;&quot;&gt;&lt;font color=&quot;#0d0d0d&quot;&gt;&lt;span style=&quot;white-space-collapse: preserve; background-color: rgb(255, 255, 255);&quot;&gt;&amp;amp; &lt;/span&gt;&lt;/font&gt;&lt;/div&gt;&lt;div style=&quot;&quot;&gt;&lt;font color=&quot;#0d0d0d&quot;&gt;&lt;span style=&quot;white-space-collapse: preserve; background-color: rgb(255, 255, 255);&quot;&gt;Read  the value into the numLEDs array &lt;/span&gt;&lt;/font&gt;&lt;/div&gt;" style="rounded=0;whiteSpace=wrap;html=1;align=center;" parent="Z0JXuheSDJeT8w4dW5JN-56" vertex="1">
          <mxGeometry x="735" y="170" width="290" height="60" as="geometry" />
        </mxCell>
        <mxCell id="Z0JXuheSDJeT8w4dW5JN-28" value="" style="endArrow=classic;html=1;rounded=0;exitX=0.5;exitY=1;exitDx=0;exitDy=0;entryX=0.5;entryY=0;entryDx=0;entryDy=0;" parent="Z0JXuheSDJeT8w4dW5JN-56" source="Z0JXuheSDJeT8w4dW5JN-24" target="Z0JXuheSDJeT8w4dW5JN-27" edge="1">
          <mxGeometry relative="1" as="geometry">
            <mxPoint x="879.71" y="100" as="sourcePoint" />
            <mxPoint x="879.71" y="170" as="targetPoint" />
          </mxGeometry>
        </mxCell>
        <mxCell id="Z0JXuheSDJeT8w4dW5JN-29" value="YES" style="edgeLabel;resizable=0;html=1;;align=center;verticalAlign=middle;" parent="Z0JXuheSDJeT8w4dW5JN-28" connectable="0" vertex="1">
          <mxGeometry relative="1" as="geometry" />
        </mxCell>
        <mxCell id="Z0JXuheSDJeT8w4dW5JN-34" style="edgeStyle=orthogonalEdgeStyle;rounded=0;orthogonalLoop=1;jettySize=auto;html=1;exitX=0.5;exitY=1;exitDx=0;exitDy=0;entryX=0.5;entryY=0;entryDx=0;entryDy=0;" parent="Z0JXuheSDJeT8w4dW5JN-56" source="Z0JXuheSDJeT8w4dW5JN-30" target="Z0JXuheSDJeT8w4dW5JN-32" edge="1">
          <mxGeometry relative="1" as="geometry">
            <mxPoint x="830" y="440" as="targetPoint" />
            <Array as="points">
              <mxPoint x="880" y="420" />
              <mxPoint x="720" y="420" />
            </Array>
          </mxGeometry>
        </mxCell>
        <mxCell id="Z0JXuheSDJeT8w4dW5JN-30" value="datacheck = 0" style="rounded=0;whiteSpace=wrap;html=1;" parent="Z0JXuheSDJeT8w4dW5JN-56" vertex="1">
          <mxGeometry x="835" y="300" width="90" height="40" as="geometry" />
        </mxCell>
        <mxCell id="Z0JXuheSDJeT8w4dW5JN-38" style="edgeStyle=orthogonalEdgeStyle;rounded=0;orthogonalLoop=1;jettySize=auto;html=1;exitX=0.5;exitY=1;exitDx=0;exitDy=0;entryX=0.5;entryY=0;entryDx=0;entryDy=0;" parent="Z0JXuheSDJeT8w4dW5JN-56" source="Z0JXuheSDJeT8w4dW5JN-32" target="Z0JXuheSDJeT8w4dW5JN-51" edge="1">
          <mxGeometry relative="1" as="geometry" />
        </mxCell>
        <mxCell id="Z0JXuheSDJeT8w4dW5JN-32" value="&lt;b&gt;animation(mode)&lt;/b&gt;&lt;div&gt;&lt;span style=&quot;color: rgb(13, 13, 13); text-align: start; white-space-collapse: preserve; background-color: rgb(255, 255, 255);&quot;&gt;&lt;font style=&quot;font-size: 12px;&quot;&gt;Determine the drive_mode, signal, effect from the CAN message and calculate the color for each pixel&lt;/font&gt;&lt;/span&gt;&lt;br&gt;&lt;/div&gt;" style="rounded=0;whiteSpace=wrap;html=1;" parent="Z0JXuheSDJeT8w4dW5JN-56" vertex="1">
          <mxGeometry x="555" y="480" width="330" height="60" as="geometry" />
        </mxCell>
        <mxCell id="Z0JXuheSDJeT8w4dW5JN-35" value="" style="endArrow=classic;html=1;rounded=0;exitX=1;exitY=0.5;exitDx=0;exitDy=0;entryX=0.5;entryY=0;entryDx=0;entryDy=0;" parent="Z0JXuheSDJeT8w4dW5JN-56" source="Z0JXuheSDJeT8w4dW5JN-24" target="Z0JXuheSDJeT8w4dW5JN-32" edge="1">
          <mxGeometry relative="1" as="geometry">
            <mxPoint x="946" y="59.51999999999998" as="sourcePoint" />
            <mxPoint x="1216" y="59.51999999999998" as="targetPoint" />
            <Array as="points">
              <mxPoint x="1110" y="60" />
              <mxPoint x="1110" y="420" />
              <mxPoint x="720" y="420" />
            </Array>
          </mxGeometry>
        </mxCell>
        <mxCell id="Z0JXuheSDJeT8w4dW5JN-36" value="NO" style="edgeLabel;resizable=0;html=1;;align=center;verticalAlign=middle;" parent="Z0JXuheSDJeT8w4dW5JN-35" connectable="0" vertex="1">
          <mxGeometry relative="1" as="geometry">
            <mxPoint x="-100" y="-315" as="offset" />
          </mxGeometry>
        </mxCell>
        <mxCell id="Z0JXuheSDJeT8w4dW5JN-50" style="edgeStyle=orthogonalEdgeStyle;rounded=0;orthogonalLoop=1;jettySize=auto;html=1;exitX=0.002;exitY=0.888;exitDx=0;exitDy=0;entryX=0;entryY=0.5;entryDx=0;entryDy=0;exitPerimeter=0;" parent="Z0JXuheSDJeT8w4dW5JN-56" source="Z0JXuheSDJeT8w4dW5JN-51" target="Z0JXuheSDJeT8w4dW5JN-9" edge="1">
          <mxGeometry relative="1" as="geometry">
            <Array as="points">
              <mxPoint x="531" y="950" />
              <mxPoint x="120" y="950" />
              <mxPoint x="120" y="60" />
            </Array>
          </mxGeometry>
        </mxCell>
        <mxCell id="Z0JXuheSDJeT8w4dW5JN-54" value="" style="group" parent="Z0JXuheSDJeT8w4dW5JN-56" vertex="1" connectable="0">
          <mxGeometry x="530" y="580" width="380" height="430" as="geometry" />
        </mxCell>
        <mxCell id="Z0JXuheSDJeT8w4dW5JN-51" value="" style="rounded=1;whiteSpace=wrap;html=1;dashed=1;dashPattern=8 8;strokeColor=#ff0000;container=0;" parent="Z0JXuheSDJeT8w4dW5JN-54" vertex="1">
          <mxGeometry width="380" height="430" as="geometry" />
        </mxCell>
        <mxCell id="Z0JXuheSDJeT8w4dW5JN-40" style="edgeStyle=orthogonalEdgeStyle;rounded=0;orthogonalLoop=1;jettySize=auto;html=1;exitX=0.5;exitY=1;exitDx=0;exitDy=0;" parent="Z0JXuheSDJeT8w4dW5JN-54" source="Z0JXuheSDJeT8w4dW5JN-37" target="Z0JXuheSDJeT8w4dW5JN-39" edge="1">
          <mxGeometry relative="1" as="geometry" />
        </mxCell>
        <mxCell id="Z0JXuheSDJeT8w4dW5JN-37" value="Calculate the duty cycle value for each period to control the pixels to display the correct required color" style="rounded=0;whiteSpace=wrap;html=1;container=0;" parent="Z0JXuheSDJeT8w4dW5JN-54" vertex="1">
          <mxGeometry x="40" y="30" width="300" height="60" as="geometry" />
        </mxCell>
        <mxCell id="Z0JXuheSDJeT8w4dW5JN-42" style="edgeStyle=orthogonalEdgeStyle;rounded=0;orthogonalLoop=1;jettySize=auto;html=1;exitX=0.5;exitY=1;exitDx=0;exitDy=0;" parent="Z0JXuheSDJeT8w4dW5JN-54" source="Z0JXuheSDJeT8w4dW5JN-39" target="Z0JXuheSDJeT8w4dW5JN-41" edge="1">
          <mxGeometry relative="1" as="geometry" />
        </mxCell>
        <mxCell id="Z0JXuheSDJeT8w4dW5JN-39" value="Pulse-width modulation (PWM) with the duty cycle is transferred by DMA from the pwmData array" style="rounded=0;whiteSpace=wrap;html=1;container=0;" parent="Z0JXuheSDJeT8w4dW5JN-54" vertex="1">
          <mxGeometry x="40" y="120" width="300" height="60" as="geometry" />
        </mxCell>
        <mxCell id="Z0JXuheSDJeT8w4dW5JN-41" value="datasentflag = 0" style="rhombus;whiteSpace=wrap;html=1;container=0;" parent="Z0JXuheSDJeT8w4dW5JN-54" vertex="1">
          <mxGeometry x="120" y="220" width="140" height="80" as="geometry" />
        </mxCell>
        <mxCell id="Z0JXuheSDJeT8w4dW5JN-43" value="datasentflag = 0" style="rounded=0;whiteSpace=wrap;html=1;container=0;" parent="Z0JXuheSDJeT8w4dW5JN-54" vertex="1">
          <mxGeometry x="130" y="350" width="120" height="60" as="geometry" />
        </mxCell>
        <mxCell id="Z0JXuheSDJeT8w4dW5JN-45" value="" style="endArrow=classic;html=1;rounded=0;exitX=0.5;exitY=1;exitDx=0;exitDy=0;entryX=0.5;entryY=0;entryDx=0;entryDy=0;" parent="Z0JXuheSDJeT8w4dW5JN-54" source="Z0JXuheSDJeT8w4dW5JN-41" target="Z0JXuheSDJeT8w4dW5JN-43" edge="1">
          <mxGeometry relative="1" as="geometry">
            <mxPoint x="-110" y="190" as="sourcePoint" />
            <mxPoint x="-10" y="190" as="targetPoint" />
          </mxGeometry>
        </mxCell>
        <mxCell id="Z0JXuheSDJeT8w4dW5JN-46" value="NO" style="edgeLabel;resizable=0;html=1;;align=center;verticalAlign=middle;container=0;" parent="Z0JXuheSDJeT8w4dW5JN-45" connectable="0" vertex="1">
          <mxGeometry relative="1" as="geometry" />
        </mxCell>
        <mxCell id="Z0JXuheSDJeT8w4dW5JN-48" value="" style="endArrow=classic;html=1;rounded=0;exitX=1;exitY=0.5;exitDx=0;exitDy=0;" parent="Z0JXuheSDJeT8w4dW5JN-54" source="Z0JXuheSDJeT8w4dW5JN-41" edge="1">
          <mxGeometry relative="1" as="geometry">
            <mxPoint x="260" y="259.47" as="sourcePoint" />
            <mxPoint x="190" y="200" as="targetPoint" />
            <Array as="points">
              <mxPoint x="310" y="260" />
              <mxPoint x="310" y="200" />
            </Array>
          </mxGeometry>
        </mxCell>
        <mxCell id="Z0JXuheSDJeT8w4dW5JN-49" value="YES" style="edgeLabel;resizable=0;html=1;;align=center;verticalAlign=middle;container=0;" parent="Z0JXuheSDJeT8w4dW5JN-48" connectable="0" vertex="1">
          <mxGeometry relative="1" as="geometry">
            <mxPoint x="-15" y="60" as="offset" />
          </mxGeometry>
        </mxCell>
        <mxCell id="Z0JXuheSDJeT8w4dW5JN-53" value="&lt;b&gt;WS2812_Send()&lt;/b&gt;" style="text;html=1;align=center;verticalAlign=middle;whiteSpace=wrap;rounded=0;" parent="Z0JXuheSDJeT8w4dW5JN-54" vertex="1">
          <mxGeometry x="57.5" width="60" height="30" as="geometry" />
        </mxCell>
        <mxCell id="Z0JXuheSDJeT8w4dW5JN-57" value="" style="group" parent="a4cFl_eTUyioMGV9xZ0--58" vertex="1" connectable="0">
          <mxGeometry width="1230" height="540" as="geometry" />
        </mxCell>
        <mxCell id="2nRzOmUZna1-RDWkNsdg-2" value="" style="rounded=1;whiteSpace=wrap;html=1;" parent="Z0JXuheSDJeT8w4dW5JN-57" vertex="1">
          <mxGeometry width="1230" height="540" as="geometry" />
        </mxCell>
        <mxCell id="2nRzOmUZna1-RDWkNsdg-41" value="&lt;div&gt;START&lt;/div&gt;" style="ellipse;whiteSpace=wrap;html=1;" parent="Z0JXuheSDJeT8w4dW5JN-57" vertex="1">
          <mxGeometry x="526.44" y="20" width="120" height="80" as="geometry" />
        </mxCell>
        <mxCell id="2nRzOmUZna1-RDWkNsdg-46" value="Read numLEDs from flash memory" style="rounded=0;whiteSpace=wrap;html=1;" parent="Z0JXuheSDJeT8w4dW5JN-57" vertex="1">
          <mxGeometry x="482.94" y="430" width="206.25" height="60" as="geometry" />
        </mxCell>
        <mxCell id="2nRzOmUZna1-RDWkNsdg-47" value="" style="endArrow=classic;html=1;rounded=0;exitX=0.5;exitY=1;exitDx=0;exitDy=0;entryX=0.5;entryY=0;entryDx=0;entryDy=0;" parent="Z0JXuheSDJeT8w4dW5JN-57" source="2nRzOmUZna1-RDWkNsdg-41" target="Z0JXuheSDJeT8w4dW5JN-1" edge="1">
          <mxGeometry width="50" height="50" relative="1" as="geometry">
            <mxPoint x="536.44" y="300" as="sourcePoint" />
            <mxPoint x="586.94" y="160" as="targetPoint" />
          </mxGeometry>
        </mxCell>
        <mxCell id="2nRzOmUZna1-RDWkNsdg-48" value="" style="endArrow=classic;html=1;rounded=0;exitX=0.5;exitY=1;exitDx=0;exitDy=0;entryX=0.5;entryY=0;entryDx=0;entryDy=0;" parent="Z0JXuheSDJeT8w4dW5JN-57" source="Z0JXuheSDJeT8w4dW5JN-1" target="Z0JXuheSDJeT8w4dW5JN-2" edge="1">
          <mxGeometry width="50" height="50" relative="1" as="geometry">
            <mxPoint x="586.06" y="220" as="sourcePoint" />
            <mxPoint x="586.2758826850181" y="270.07957203150636" as="targetPoint" />
          </mxGeometry>
        </mxCell>
        <mxCell id="2nRzOmUZna1-RDWkNsdg-52" value="" style="endArrow=classic;html=1;rounded=0;exitX=0.5;exitY=1;exitDx=0;exitDy=0;entryX=0.5;entryY=0;entryDx=0;entryDy=0;" parent="Z0JXuheSDJeT8w4dW5JN-57" source="Z0JXuheSDJeT8w4dW5JN-2" target="2nRzOmUZna1-RDWkNsdg-46" edge="1">
          <mxGeometry width="50" height="50" relative="1" as="geometry">
            <mxPoint x="586.44" y="350" as="sourcePoint" />
            <mxPoint x="626.44" y="290" as="targetPoint" />
          </mxGeometry>
        </mxCell>
        <mxCell id="2nRzOmUZna1-RDWkNsdg-116" value="&lt;div&gt;&lt;font style=&quot;font-size: 36px;&quot;&gt;&lt;b&gt;SETUP&lt;/b&gt;&lt;/font&gt;&lt;/div&gt;" style="text;html=1;strokeColor=none;fillColor=none;align=center;verticalAlign=middle;whiteSpace=wrap;rounded=0;" parent="Z0JXuheSDJeT8w4dW5JN-57" vertex="1">
          <mxGeometry x="80" y="30" width="60" height="30" as="geometry" />
        </mxCell>
        <mxCell id="Z0JXuheSDJeT8w4dW5JN-1" value="INIT CAN, Timer, DMA, GPIO" style="rounded=0;whiteSpace=wrap;html=1;" parent="Z0JXuheSDJeT8w4dW5JN-57" vertex="1">
          <mxGeometry x="517.85" y="160" width="136.44" height="60" as="geometry" />
        </mxCell>
        <mxCell id="Z0JXuheSDJeT8w4dW5JN-2" value="Start CAN, Timer_IT" style="rounded=0;whiteSpace=wrap;html=1;" parent="Z0JXuheSDJeT8w4dW5JN-57" vertex="1">
          <mxGeometry x="526.44" y="290" width="120" height="60" as="geometry" />
        </mxCell>
        <mxCell id="a4cFl_eTUyioMGV9xZ0--10" value="" style="group" vertex="1" connectable="0" parent="a4cFl_eTUyioMGV9xZ0--58">
          <mxGeometry x="1280" y="650" width="1130" height="352.5" as="geometry" />
        </mxCell>
        <mxCell id="a4cFl_eTUyioMGV9xZ0--8" value="" style="rounded=1;whiteSpace=wrap;html=1;" vertex="1" parent="a4cFl_eTUyioMGV9xZ0--10">
          <mxGeometry x="70" width="1060" height="337.5" as="geometry" />
        </mxCell>
        <mxCell id="a4cFl_eTUyioMGV9xZ0--4" style="edgeStyle=orthogonalEdgeStyle;rounded=0;orthogonalLoop=1;jettySize=auto;html=1;exitX=1;exitY=0.5;exitDx=0;exitDy=0;entryX=0;entryY=0.5;entryDx=0;entryDy=0;" edge="1" parent="a4cFl_eTUyioMGV9xZ0--10" source="Z0JXuheSDJeT8w4dW5JN-75" target="Z0JXuheSDJeT8w4dW5JN-88">
          <mxGeometry relative="1" as="geometry" />
        </mxCell>
        <mxCell id="Z0JXuheSDJeT8w4dW5JN-75" value="&lt;div&gt;Receive CAN message&lt;/div&gt;" style="rounded=0;whiteSpace=wrap;html=1;" parent="a4cFl_eTUyioMGV9xZ0--10" vertex="1">
          <mxGeometry x="300" y="52.5" width="120" height="60" as="geometry" />
        </mxCell>
        <mxCell id="a4cFl_eTUyioMGV9xZ0--1" style="edgeStyle=orthogonalEdgeStyle;rounded=0;orthogonalLoop=1;jettySize=auto;html=1;exitX=0.5;exitY=1;exitDx=0;exitDy=0;entryX=0;entryY=0.5;entryDx=0;entryDy=0;" edge="1" parent="a4cFl_eTUyioMGV9xZ0--10" source="Z0JXuheSDJeT8w4dW5JN-80" target="Z0JXuheSDJeT8w4dW5JN-99">
          <mxGeometry relative="1" as="geometry" />
        </mxCell>
        <mxCell id="Z0JXuheSDJeT8w4dW5JN-80" value="datacheck = 2" style="rounded=0;whiteSpace=wrap;html=1;" parent="a4cFl_eTUyioMGV9xZ0--10" vertex="1">
          <mxGeometry x="750" y="177.5" width="125" height="60" as="geometry" />
        </mxCell>
        <mxCell id="a4cFl_eTUyioMGV9xZ0--2" style="edgeStyle=orthogonalEdgeStyle;rounded=0;orthogonalLoop=1;jettySize=auto;html=1;exitX=0.5;exitY=1;exitDx=0;exitDy=0;entryX=0;entryY=0.5;entryDx=0;entryDy=0;" edge="1" parent="a4cFl_eTUyioMGV9xZ0--10" source="Z0JXuheSDJeT8w4dW5JN-86" target="Z0JXuheSDJeT8w4dW5JN-99">
          <mxGeometry relative="1" as="geometry" />
        </mxCell>
        <mxCell id="Z0JXuheSDJeT8w4dW5JN-86" value="data = RxData datacheck = 1" style="rounded=0;whiteSpace=wrap;html=1;" parent="a4cFl_eTUyioMGV9xZ0--10" vertex="1">
          <mxGeometry x="520" y="177.5" width="120" height="60" as="geometry" />
        </mxCell>
        <mxCell id="Z0JXuheSDJeT8w4dW5JN-88" value="DLC == 2 &amp;amp;&amp;amp;&amp;nbsp; cmd frame" style="rhombus;whiteSpace=wrap;html=1;" parent="a4cFl_eTUyioMGV9xZ0--10" vertex="1">
          <mxGeometry x="495" y="42.5" width="170" height="80" as="geometry" />
        </mxCell>
        <mxCell id="Z0JXuheSDJeT8w4dW5JN-100" style="edgeStyle=orthogonalEdgeStyle;rounded=0;orthogonalLoop=1;jettySize=auto;html=1;exitX=1;exitY=0.5;exitDx=0;exitDy=0;entryX=0;entryY=0.5;entryDx=0;entryDy=0;" parent="a4cFl_eTUyioMGV9xZ0--10" source="Z0JXuheSDJeT8w4dW5JN-91" target="Z0JXuheSDJeT8w4dW5JN-99" edge="1">
          <mxGeometry relative="1" as="geometry" />
        </mxCell>
        <mxCell id="Z0JXuheSDJeT8w4dW5JN-91" value="DLC == 2 &amp;amp;&amp;amp;&amp;nbsp; cmd frame" style="rhombus;whiteSpace=wrap;html=1;" parent="a4cFl_eTUyioMGV9xZ0--10" vertex="1">
          <mxGeometry x="727.5" y="42.5" width="170" height="80" as="geometry" />
        </mxCell>
        <mxCell id="Z0JXuheSDJeT8w4dW5JN-93" value="" style="endArrow=classic;html=1;rounded=0;exitX=0.5;exitY=1;exitDx=0;exitDy=0;entryX=0.5;entryY=0;entryDx=0;entryDy=0;" parent="a4cFl_eTUyioMGV9xZ0--10" source="Z0JXuheSDJeT8w4dW5JN-88" target="Z0JXuheSDJeT8w4dW5JN-86" edge="1">
          <mxGeometry relative="1" as="geometry">
            <mxPoint x="470" y="177.5" as="sourcePoint" />
            <mxPoint x="570" y="177.5" as="targetPoint" />
          </mxGeometry>
        </mxCell>
        <mxCell id="Z0JXuheSDJeT8w4dW5JN-94" value="YES" style="edgeLabel;resizable=0;html=1;;align=center;verticalAlign=middle;" parent="Z0JXuheSDJeT8w4dW5JN-93" connectable="0" vertex="1">
          <mxGeometry relative="1" as="geometry" />
        </mxCell>
        <mxCell id="Z0JXuheSDJeT8w4dW5JN-95" value="" style="endArrow=classic;html=1;rounded=0;exitX=1;exitY=0.5;exitDx=0;exitDy=0;entryX=0;entryY=0.5;entryDx=0;entryDy=0;" parent="a4cFl_eTUyioMGV9xZ0--10" source="Z0JXuheSDJeT8w4dW5JN-88" target="Z0JXuheSDJeT8w4dW5JN-91" edge="1">
          <mxGeometry relative="1" as="geometry">
            <mxPoint x="470" y="177.5" as="sourcePoint" />
            <mxPoint x="570" y="177.5" as="targetPoint" />
          </mxGeometry>
        </mxCell>
        <mxCell id="Z0JXuheSDJeT8w4dW5JN-96" value="NO" style="edgeLabel;resizable=0;html=1;;align=center;verticalAlign=middle;" parent="Z0JXuheSDJeT8w4dW5JN-95" connectable="0" vertex="1">
          <mxGeometry relative="1" as="geometry" />
        </mxCell>
        <mxCell id="Z0JXuheSDJeT8w4dW5JN-97" value="" style="endArrow=classic;html=1;rounded=0;exitX=0.5;exitY=1;exitDx=0;exitDy=0;entryX=0.5;entryY=0;entryDx=0;entryDy=0;" parent="a4cFl_eTUyioMGV9xZ0--10" source="Z0JXuheSDJeT8w4dW5JN-91" target="Z0JXuheSDJeT8w4dW5JN-80" edge="1">
          <mxGeometry relative="1" as="geometry">
            <mxPoint x="812.0799999999999" y="122.5" as="sourcePoint" />
            <mxPoint x="812.0799999999999" y="177.5" as="targetPoint" />
          </mxGeometry>
        </mxCell>
        <mxCell id="Z0JXuheSDJeT8w4dW5JN-98" value="YES" style="edgeLabel;resizable=0;html=1;;align=center;verticalAlign=middle;" parent="Z0JXuheSDJeT8w4dW5JN-97" connectable="0" vertex="1">
          <mxGeometry relative="1" as="geometry" />
        </mxCell>
        <mxCell id="Z0JXuheSDJeT8w4dW5JN-99" value="STOP" style="ellipse;whiteSpace=wrap;html=1;" parent="a4cFl_eTUyioMGV9xZ0--10" vertex="1">
          <mxGeometry x="1020" y="247.5" width="70" height="40" as="geometry" />
        </mxCell>
        <mxCell id="a4cFl_eTUyioMGV9xZ0--3" value="NO" style="edgeLabel;resizable=0;html=1;;align=center;verticalAlign=middle;" connectable="0" vertex="1" parent="a4cFl_eTUyioMGV9xZ0--10">
          <mxGeometry x="897.5047058823529" y="67.5" as="geometry">
            <mxPoint x="47" y="12" as="offset" />
          </mxGeometry>
        </mxCell>
        <mxCell id="a4cFl_eTUyioMGV9xZ0--6" style="edgeStyle=orthogonalEdgeStyle;rounded=0;orthogonalLoop=1;jettySize=auto;html=1;exitX=1;exitY=0.5;exitDx=0;exitDy=0;entryX=0;entryY=0.5;entryDx=0;entryDy=0;" edge="1" parent="a4cFl_eTUyioMGV9xZ0--10" source="a4cFl_eTUyioMGV9xZ0--5" target="Z0JXuheSDJeT8w4dW5JN-75">
          <mxGeometry relative="1" as="geometry" />
        </mxCell>
        <mxCell id="a4cFl_eTUyioMGV9xZ0--5" value="START" style="ellipse;whiteSpace=wrap;html=1;" vertex="1" parent="a4cFl_eTUyioMGV9xZ0--10">
          <mxGeometry x="160" y="60" width="70" height="45" as="geometry" />
        </mxCell>
        <mxCell id="a4cFl_eTUyioMGV9xZ0--9" value="&lt;b&gt;&lt;font style=&quot;font-size: 36px;&quot;&gt;CAN_RX Interrupt&lt;/font&gt;&lt;/b&gt;" style="text;html=1;align=center;verticalAlign=middle;whiteSpace=wrap;rounded=0;" vertex="1" parent="a4cFl_eTUyioMGV9xZ0--10">
          <mxGeometry y="237.5" width="500" height="115" as="geometry" />
        </mxCell>
        <mxCell id="a4cFl_eTUyioMGV9xZ0--49" value="" style="group" vertex="1" connectable="0" parent="a4cFl_eTUyioMGV9xZ0--58">
          <mxGeometry x="1350" y="1430" width="1060" height="260" as="geometry" />
        </mxCell>
        <mxCell id="a4cFl_eTUyioMGV9xZ0--26" value="" style="rounded=1;whiteSpace=wrap;html=1;container=0;" vertex="1" parent="a4cFl_eTUyioMGV9xZ0--49">
          <mxGeometry width="1060" height="260" as="geometry" />
        </mxCell>
        <mxCell id="a4cFl_eTUyioMGV9xZ0--27" style="edgeStyle=orthogonalEdgeStyle;rounded=0;orthogonalLoop=1;jettySize=auto;html=1;exitX=1;exitY=0.5;exitDx=0;exitDy=0;entryX=0;entryY=0.5;entryDx=0;entryDy=0;" edge="1" parent="a4cFl_eTUyioMGV9xZ0--49" source="a4cFl_eTUyioMGV9xZ0--28" target="a4cFl_eTUyioMGV9xZ0--37">
          <mxGeometry relative="1" as="geometry" />
        </mxCell>
        <mxCell id="a4cFl_eTUyioMGV9xZ0--28" value="START" style="ellipse;whiteSpace=wrap;html=1;container=0;" vertex="1" parent="a4cFl_eTUyioMGV9xZ0--49">
          <mxGeometry x="70" y="60" width="70" height="45" as="geometry" />
        </mxCell>
        <mxCell id="a4cFl_eTUyioMGV9xZ0--31" style="edgeStyle=orthogonalEdgeStyle;rounded=0;orthogonalLoop=1;jettySize=auto;html=1;exitX=1;exitY=0.5;exitDx=0;exitDy=0;entryX=0;entryY=0.5;entryDx=0;entryDy=0;" edge="1" parent="a4cFl_eTUyioMGV9xZ0--49" source="a4cFl_eTUyioMGV9xZ0--32" target="a4cFl_eTUyioMGV9xZ0--34">
          <mxGeometry relative="1" as="geometry" />
        </mxCell>
        <mxCell id="a4cFl_eTUyioMGV9xZ0--32" value="Stop PWM" style="rounded=0;whiteSpace=wrap;html=1;container=0;" vertex="1" parent="a4cFl_eTUyioMGV9xZ0--49">
          <mxGeometry x="540" y="52.5" width="140" height="60" as="geometry" />
        </mxCell>
        <mxCell id="a4cFl_eTUyioMGV9xZ0--33" style="edgeStyle=orthogonalEdgeStyle;rounded=0;orthogonalLoop=1;jettySize=auto;html=1;exitX=1;exitY=0.5;exitDx=0;exitDy=0;entryX=0;entryY=0.5;entryDx=0;entryDy=0;" edge="1" parent="a4cFl_eTUyioMGV9xZ0--49" source="a4cFl_eTUyioMGV9xZ0--34" target="a4cFl_eTUyioMGV9xZ0--35">
          <mxGeometry relative="1" as="geometry" />
        </mxCell>
        <mxCell id="a4cFl_eTUyioMGV9xZ0--34" value="datasentflag = 1" style="rounded=0;whiteSpace=wrap;html=1;container=0;" vertex="1" parent="a4cFl_eTUyioMGV9xZ0--49">
          <mxGeometry x="740" y="52.5" width="120" height="60" as="geometry" />
        </mxCell>
        <mxCell id="a4cFl_eTUyioMGV9xZ0--35" value="STOP" style="ellipse;whiteSpace=wrap;html=1;container=0;" vertex="1" parent="a4cFl_eTUyioMGV9xZ0--49">
          <mxGeometry x="940" y="60" width="70" height="45" as="geometry" />
        </mxCell>
        <mxCell id="a4cFl_eTUyioMGV9xZ0--36" value="&lt;b&gt;&lt;font style=&quot;font-size: 36px;&quot;&gt;PWM Finish Interrupt&lt;/font&gt;&lt;/b&gt;" style="text;html=1;align=center;verticalAlign=middle;whiteSpace=wrap;rounded=0;container=0;" vertex="1" parent="a4cFl_eTUyioMGV9xZ0--49">
          <mxGeometry x="20" y="215" width="390" height="30" as="geometry" />
        </mxCell>
        <mxCell id="a4cFl_eTUyioMGV9xZ0--47" style="edgeStyle=orthogonalEdgeStyle;rounded=0;orthogonalLoop=1;jettySize=auto;html=1;exitX=0.5;exitY=1;exitDx=0;exitDy=0;entryX=0;entryY=0.5;entryDx=0;entryDy=0;" edge="1" parent="a4cFl_eTUyioMGV9xZ0--49" source="a4cFl_eTUyioMGV9xZ0--37" target="a4cFl_eTUyioMGV9xZ0--35">
          <mxGeometry relative="1" as="geometry">
            <Array as="points">
              <mxPoint x="235" y="160" />
              <mxPoint x="900" y="160" />
              <mxPoint x="900" y="82" />
            </Array>
          </mxGeometry>
        </mxCell>
        <mxCell id="a4cFl_eTUyioMGV9xZ0--37" value="timer = TIM1" style="rhombus;whiteSpace=wrap;html=1;" vertex="1" parent="a4cFl_eTUyioMGV9xZ0--49">
          <mxGeometry x="190" y="51.25" width="90" height="62.5" as="geometry" />
        </mxCell>
        <mxCell id="a4cFl_eTUyioMGV9xZ0--44" style="edgeStyle=orthogonalEdgeStyle;rounded=0;orthogonalLoop=1;jettySize=auto;html=1;exitX=0.5;exitY=1;exitDx=0;exitDy=0;entryX=0;entryY=0.5;entryDx=0;entryDy=0;" edge="1" parent="a4cFl_eTUyioMGV9xZ0--49" source="a4cFl_eTUyioMGV9xZ0--38" target="a4cFl_eTUyioMGV9xZ0--35">
          <mxGeometry relative="1" as="geometry">
            <Array as="points">
              <mxPoint x="415" y="140" />
              <mxPoint x="900" y="140" />
              <mxPoint x="900" y="82" />
            </Array>
          </mxGeometry>
        </mxCell>
        <mxCell id="a4cFl_eTUyioMGV9xZ0--38" value="channel = channel 1" style="rhombus;whiteSpace=wrap;html=1;" vertex="1" parent="a4cFl_eTUyioMGV9xZ0--49">
          <mxGeometry x="350" y="45" width="130" height="75" as="geometry" />
        </mxCell>
        <mxCell id="a4cFl_eTUyioMGV9xZ0--39" value="" style="endArrow=classic;html=1;rounded=0;exitX=1;exitY=0.5;exitDx=0;exitDy=0;entryX=0;entryY=0.5;entryDx=0;entryDy=0;" edge="1" parent="a4cFl_eTUyioMGV9xZ0--49" source="a4cFl_eTUyioMGV9xZ0--37" target="a4cFl_eTUyioMGV9xZ0--38">
          <mxGeometry relative="1" as="geometry">
            <mxPoint x="287" y="130" as="sourcePoint" />
            <mxPoint x="387" y="130" as="targetPoint" />
          </mxGeometry>
        </mxCell>
        <mxCell id="a4cFl_eTUyioMGV9xZ0--40" value="YES" style="edgeLabel;resizable=0;html=1;;align=center;verticalAlign=middle;" connectable="0" vertex="1" parent="a4cFl_eTUyioMGV9xZ0--39">
          <mxGeometry relative="1" as="geometry" />
        </mxCell>
        <mxCell id="a4cFl_eTUyioMGV9xZ0--41" value="" style="endArrow=classic;html=1;rounded=0;exitX=1;exitY=0.5;exitDx=0;exitDy=0;entryX=0;entryY=0.5;entryDx=0;entryDy=0;" edge="1" parent="a4cFl_eTUyioMGV9xZ0--49" source="a4cFl_eTUyioMGV9xZ0--38" target="a4cFl_eTUyioMGV9xZ0--32">
          <mxGeometry relative="1" as="geometry">
            <mxPoint x="450" y="81.91000000000003" as="sourcePoint" />
            <mxPoint x="510" y="81.91000000000003" as="targetPoint" />
          </mxGeometry>
        </mxCell>
        <mxCell id="a4cFl_eTUyioMGV9xZ0--42" value="YES" style="edgeLabel;resizable=0;html=1;;align=center;verticalAlign=middle;" connectable="0" vertex="1" parent="a4cFl_eTUyioMGV9xZ0--41">
          <mxGeometry relative="1" as="geometry" />
        </mxCell>
        <mxCell id="a4cFl_eTUyioMGV9xZ0--46" value="NO" style="edgeLabel;resizable=0;html=1;;align=center;verticalAlign=middle;" connectable="0" vertex="1" parent="a4cFl_eTUyioMGV9xZ0--49">
          <mxGeometry x="499.99571428571426" y="140" as="geometry">
            <mxPoint y="-1" as="offset" />
          </mxGeometry>
        </mxCell>
        <mxCell id="a4cFl_eTUyioMGV9xZ0--48" value="NO" style="edgeLabel;resizable=0;html=1;;align=center;verticalAlign=middle;" connectable="0" vertex="1" parent="a4cFl_eTUyioMGV9xZ0--49">
          <mxGeometry x="509.99571428571426" y="150" as="geometry">
            <mxPoint x="-233" y="10" as="offset" />
          </mxGeometry>
        </mxCell>
        <mxCell id="a4cFl_eTUyioMGV9xZ0--57" value="" style="group" vertex="1" connectable="0" parent="a4cFl_eTUyioMGV9xZ0--58">
          <mxGeometry x="1330" y="1110" width="1070" height="200" as="geometry" />
        </mxCell>
        <mxCell id="a4cFl_eTUyioMGV9xZ0--21" value="" style="rounded=1;whiteSpace=wrap;html=1;container=0;" vertex="1" parent="a4cFl_eTUyioMGV9xZ0--57">
          <mxGeometry x="20" width="1060" height="200" as="geometry" />
        </mxCell>
        <mxCell id="a4cFl_eTUyioMGV9xZ0--14" style="edgeStyle=orthogonalEdgeStyle;rounded=0;orthogonalLoop=1;jettySize=auto;html=1;exitX=1;exitY=0.5;exitDx=0;exitDy=0;entryX=0;entryY=0.5;entryDx=0;entryDy=0;" edge="1" parent="a4cFl_eTUyioMGV9xZ0--57" source="a4cFl_eTUyioMGV9xZ0--12" target="a4cFl_eTUyioMGV9xZ0--51">
          <mxGeometry relative="1" as="geometry" />
        </mxCell>
        <mxCell id="a4cFl_eTUyioMGV9xZ0--12" value="START" style="ellipse;whiteSpace=wrap;html=1;container=0;" vertex="1" parent="a4cFl_eTUyioMGV9xZ0--57">
          <mxGeometry x="50" y="40" width="70" height="45" as="geometry" />
        </mxCell>
        <mxCell id="a4cFl_eTUyioMGV9xZ0--16" style="edgeStyle=orthogonalEdgeStyle;rounded=0;orthogonalLoop=1;jettySize=auto;html=1;exitX=1;exitY=0.5;exitDx=0;exitDy=0;entryX=0;entryY=0.5;entryDx=0;entryDy=0;" edge="1" parent="a4cFl_eTUyioMGV9xZ0--57" source="a4cFl_eTUyioMGV9xZ0--13" target="a4cFl_eTUyioMGV9xZ0--15">
          <mxGeometry relative="1" as="geometry" />
        </mxCell>
        <mxCell id="a4cFl_eTUyioMGV9xZ0--13" value="TxData1[] = data[]" style="rounded=0;whiteSpace=wrap;html=1;container=0;" vertex="1" parent="a4cFl_eTUyioMGV9xZ0--57">
          <mxGeometry x="350" y="32.5" width="120" height="60" as="geometry" />
        </mxCell>
        <mxCell id="a4cFl_eTUyioMGV9xZ0--18" style="edgeStyle=orthogonalEdgeStyle;rounded=0;orthogonalLoop=1;jettySize=auto;html=1;exitX=1;exitY=0.5;exitDx=0;exitDy=0;entryX=0;entryY=0.5;entryDx=0;entryDy=0;" edge="1" parent="a4cFl_eTUyioMGV9xZ0--57" source="a4cFl_eTUyioMGV9xZ0--15" target="a4cFl_eTUyioMGV9xZ0--17">
          <mxGeometry relative="1" as="geometry" />
        </mxCell>
        <mxCell id="a4cFl_eTUyioMGV9xZ0--15" value="TxData2[] = numLEDs[]" style="rounded=0;whiteSpace=wrap;html=1;container=0;" vertex="1" parent="a4cFl_eTUyioMGV9xZ0--57">
          <mxGeometry x="540" y="32.5" width="140" height="60" as="geometry" />
        </mxCell>
        <mxCell id="a4cFl_eTUyioMGV9xZ0--20" style="edgeStyle=orthogonalEdgeStyle;rounded=0;orthogonalLoop=1;jettySize=auto;html=1;exitX=1;exitY=0.5;exitDx=0;exitDy=0;entryX=0;entryY=0.5;entryDx=0;entryDy=0;" edge="1" parent="a4cFl_eTUyioMGV9xZ0--57" source="a4cFl_eTUyioMGV9xZ0--17" target="a4cFl_eTUyioMGV9xZ0--19">
          <mxGeometry relative="1" as="geometry" />
        </mxCell>
        <mxCell id="a4cFl_eTUyioMGV9xZ0--17" value="Send CAN frame" style="rounded=0;whiteSpace=wrap;html=1;container=0;" vertex="1" parent="a4cFl_eTUyioMGV9xZ0--57">
          <mxGeometry x="750" y="32.5" width="120" height="60" as="geometry" />
        </mxCell>
        <mxCell id="a4cFl_eTUyioMGV9xZ0--19" value="STOP" style="ellipse;whiteSpace=wrap;html=1;container=0;" vertex="1" parent="a4cFl_eTUyioMGV9xZ0--57">
          <mxGeometry x="930" y="40" width="70" height="45" as="geometry" />
        </mxCell>
        <mxCell id="a4cFl_eTUyioMGV9xZ0--22" value="&lt;b&gt;&lt;font style=&quot;font-size: 36px;&quot;&gt;Timer Interrupt&lt;/font&gt;&lt;/b&gt;" style="text;html=1;align=center;verticalAlign=middle;whiteSpace=wrap;rounded=0;container=0;" vertex="1" parent="a4cFl_eTUyioMGV9xZ0--57">
          <mxGeometry y="160" width="320" height="30" as="geometry" />
        </mxCell>
        <mxCell id="a4cFl_eTUyioMGV9xZ0--54" style="edgeStyle=orthogonalEdgeStyle;rounded=0;orthogonalLoop=1;jettySize=auto;html=1;exitX=0.5;exitY=1;exitDx=0;exitDy=0;entryX=0;entryY=0.5;entryDx=0;entryDy=0;" edge="1" parent="a4cFl_eTUyioMGV9xZ0--57" source="a4cFl_eTUyioMGV9xZ0--51" target="a4cFl_eTUyioMGV9xZ0--19">
          <mxGeometry relative="1" as="geometry">
            <Array as="points">
              <mxPoint x="220" y="114" />
              <mxPoint x="900" y="114" />
              <mxPoint x="900" y="62" />
            </Array>
          </mxGeometry>
        </mxCell>
        <mxCell id="a4cFl_eTUyioMGV9xZ0--51" value="timer = TIM2" style="rhombus;whiteSpace=wrap;html=1;" vertex="1" parent="a4cFl_eTUyioMGV9xZ0--57">
          <mxGeometry x="170" y="32.5" width="100" height="61.25" as="geometry" />
        </mxCell>
        <mxCell id="a4cFl_eTUyioMGV9xZ0--52" value="" style="endArrow=classic;html=1;rounded=0;exitX=1;exitY=0.5;exitDx=0;exitDy=0;" edge="1" parent="a4cFl_eTUyioMGV9xZ0--57" source="a4cFl_eTUyioMGV9xZ0--51" target="a4cFl_eTUyioMGV9xZ0--13">
          <mxGeometry relative="1" as="geometry">
            <mxPoint x="310" y="80" as="sourcePoint" />
            <mxPoint x="410" y="80" as="targetPoint" />
          </mxGeometry>
        </mxCell>
        <mxCell id="a4cFl_eTUyioMGV9xZ0--53" value="YES" style="edgeLabel;resizable=0;html=1;;align=center;verticalAlign=middle;" connectable="0" vertex="1" parent="a4cFl_eTUyioMGV9xZ0--52">
          <mxGeometry relative="1" as="geometry" />
        </mxCell>
        <mxCell id="a4cFl_eTUyioMGV9xZ0--56" value="NO" style="edgeLabel;resizable=0;html=1;;align=center;verticalAlign=middle;" connectable="0" vertex="1" parent="a4cFl_eTUyioMGV9xZ0--57">
          <mxGeometry x="309.9996014090193" y="72.94643035085255" as="geometry">
            <mxPoint x="-37" y="36" as="offset" />
          </mxGeometry>
        </mxCell>
      </root>
    </mxGraphModel>
  </diagram>
</mxfile>
